<?xml version="1.0" encoding="utf-8"?>
<!-- Generator: Adobe Illustrator 26.3.1, SVG Export Plug-In . SVG Version: 6.00 Build 0)  -->
<svg version="1.1" id="Layer_1" xmlns="http://www.w3.org/2000/svg" xmlns:xlink="http://www.w3.org/1999/xlink" x="0px" y="0px"
	 viewBox="0 0 126 36" style="enable-background:new 0 0 126 36;" xml:space="preserve">
<style type="text/css">
	.st0{fill:#0EA5EA;}
	.st1{opacity:0.3;fill:#0EA5EA;enable-background:new    ;}
	.st2{fill:#91D6E6;}
	.st3{font-family:'Noteworthy-Bold';}
	.st4{font-size:18px;}
</style>
<path class="st0" d="M28.3,4.6v7.2l-9,5V6.8l6.5-3.5C26.1,3.1,26.4,3,26.6,3c0.3,0,0.6,0.1,0.8,0.2c0.3,0.1,0.5,0.3,0.6,0.6
	C28.2,4,28.3,4.3,28.3,4.6z"/>
<path class="st1" d="M10.4,4.6v7.2l9,5V6.8l-6.5-3.5C12.7,3.1,12.4,3,12.1,3c-0.3,0-0.6,0.1-0.8,0.2c-0.3,0.1-0.5,0.3-0.6,0.6
	C10.5,4,10.4,4.3,10.4,4.6z"/>
<path class="st0" d="M26.5,33l-6.3-3.6l0.1-10.3l8.7,5L29,31.4c0,0.3-0.1,0.6-0.2,0.8c-0.1,0.3-0.3,0.5-0.6,0.6
	c-0.2,0.2-0.5,0.2-0.8,0.3C27.1,33.2,26.8,33.1,26.5,33z"/>
<path class="st1" d="M35.5,17.4l-6.3-3.6l-8.8,5.3l8.7,5l6.3-3.8c0.2-0.1,0.5-0.4,0.6-0.6c0.1-0.3,0.2-0.5,0.2-0.8
	c0-0.3-0.1-0.6-0.2-0.8C35.9,17.7,35.7,17.5,35.5,17.4z"/>
<path class="st1" d="M11.7,33l6.3-3.6l-0.1-10.3l-8.7,5l0.1,7.4c0,0.3,0.1,0.6,0.2,0.8c0.1,0.3,0.3,0.5,0.6,0.6
	c0.2,0.2,0.5,0.2,0.8,0.3C11.1,33.2,11.4,33.1,11.7,33z"/>
<path class="st0" d="M2.8,17.4L9,13.8l8.8,5.3l-8.7,5l-6.3-3.8c-0.2-0.1-0.5-0.4-0.6-0.6C2.1,19.4,2,19.1,2,18.8
	c0-0.3,0.1-0.6,0.2-0.8C2.3,17.7,2.5,17.5,2.8,17.4z"/>
<text transform="matrix(1 0 0 1 40.866 24.0821)" class="st2 st3 st4">PlayPulse</text>
</svg>
